<mxfile host="Electron" modified="2023-12-29T08:07:02.899Z" agent="Mozilla/5.0 (Windows NT 10.0; Win64; x64) AppleWebKit/537.36 (KHTML, like Gecko) draw.io/22.1.15 Chrome/120.0.6099.109 Electron/28.1.0 Safari/537.36" etag="5BWF9HThgMVGRXSAZa1G" version="22.1.15" type="device">
  <diagram name="Page-1" id="aqqeiOdNQHRV5VJ2A3od">
    <mxGraphModel dx="674" dy="463" grid="1" gridSize="10" guides="1" tooltips="1" connect="1" arrows="1" fold="1" page="1" pageScale="1" pageWidth="850" pageHeight="1100" math="0" shadow="0">
      <root>
        <mxCell id="0" />
        <mxCell id="1" parent="0" />
        <mxCell id="fI2Z51R1fhLI-r8seP-d-1" value="" style="rounded=0;whiteSpace=wrap;html=1;fillColor=#fad9d5;strokeColor=#ae4132;" vertex="1" parent="1">
          <mxGeometry x="400" y="320" width="40" height="40" as="geometry" />
        </mxCell>
        <mxCell id="fI2Z51R1fhLI-r8seP-d-3" value="" style="rounded=0;whiteSpace=wrap;html=1;fillColor=#fad7ac;strokeColor=#b46504;" vertex="1" parent="1">
          <mxGeometry x="450" y="320" width="40" height="40" as="geometry" />
        </mxCell>
        <mxCell id="fI2Z51R1fhLI-r8seP-d-4" value="" style="rounded=0;whiteSpace=wrap;html=1;fillColor=#b1ddf0;strokeColor=#10739e;" vertex="1" parent="1">
          <mxGeometry x="400" y="370" width="40" height="40" as="geometry" />
        </mxCell>
        <mxCell id="fI2Z51R1fhLI-r8seP-d-5" value="" style="rounded=0;whiteSpace=wrap;html=1;fillColor=#B0F9E0;strokeColor=#0E8088;" vertex="1" parent="1">
          <mxGeometry x="450" y="370" width="40" height="40" as="geometry" />
        </mxCell>
        <mxCell id="fI2Z51R1fhLI-r8seP-d-7" value="" style="rounded=0;whiteSpace=wrap;html=1;fillColor=#FFC37B;" vertex="1" parent="1">
          <mxGeometry x="550" y="320" width="40" height="40" as="geometry" />
        </mxCell>
        <mxCell id="fI2Z51R1fhLI-r8seP-d-8" value="" style="rounded=0;whiteSpace=wrap;html=1;fillColor=#FFB5A8;" vertex="1" parent="1">
          <mxGeometry x="500" y="320" width="40" height="40" as="geometry" />
        </mxCell>
        <mxCell id="fI2Z51R1fhLI-r8seP-d-9" value="" style="rounded=0;whiteSpace=wrap;html=1;fillColor=#A1FCD0;" vertex="1" parent="1">
          <mxGeometry x="550" y="370" width="40" height="40" as="geometry" />
        </mxCell>
        <mxCell id="fI2Z51R1fhLI-r8seP-d-10" value="" style="rounded=0;whiteSpace=wrap;html=1;fillColor=#80CBF2;" vertex="1" parent="1">
          <mxGeometry x="500" y="370" width="40" height="40" as="geometry" />
        </mxCell>
        <mxCell id="fI2Z51R1fhLI-r8seP-d-17" value="" style="edgeStyle=orthogonalEdgeStyle;rounded=0;orthogonalLoop=1;jettySize=auto;html=1;shape=flexArrow;fillColor=#F5F5F5;gradientColor=#B3B3B3;strokeColor=#666666;" edge="1" parent="1">
          <mxGeometry relative="1" as="geometry">
            <mxPoint x="420" y="470" as="sourcePoint" />
            <mxPoint x="420" y="530" as="targetPoint" />
          </mxGeometry>
        </mxCell>
        <mxCell id="fI2Z51R1fhLI-r8seP-d-11" value="" style="rounded=0;whiteSpace=wrap;html=1;fillColor=#EEEEEE;strokeColor=#36393D;" vertex="1" parent="1">
          <mxGeometry x="400" y="420" width="40" height="40" as="geometry" />
        </mxCell>
        <mxCell id="fI2Z51R1fhLI-r8seP-d-18" value="&lt;pre&gt;&lt;font color=&quot;#ffffff&quot;&gt;12345678&lt;br&gt;&lt;/font&gt;&lt;font color=&quot;#ffffff&quot;&gt;abcdefg&lt;br&gt;&lt;/font&gt;&lt;font color=&quot;#ffffff&quot;&gt;+-*/!@#$%^&amp;amp;*()&lt;/font&gt;&lt;/pre&gt;" style="rounded=1;whiteSpace=wrap;html=1;arcSize=4;fillColor=#000000;strokeColor=#999999;align=left;" vertex="1" parent="1">
          <mxGeometry x="450" y="420" width="140" height="110" as="geometry" />
        </mxCell>
      </root>
    </mxGraphModel>
  </diagram>
</mxfile>
